<?xml version="1.0" encoding="utf-8"?>
<!-- Generator: Adobe Illustrator 17.1.0, SVG Export Plug-In . SVG Version: 6.00 Build 0)  -->
<!DOCTYPE svg PUBLIC "-//W3C//DTD SVG 1.1//EN" "http://www.w3.org/Graphics/SVG/1.1/DTD/svg11.dtd">
<svg version="1.1" id="Capa_1" xmlns="http://www.w3.org/2000/svg" xmlns:xlink="http://www.w3.org/1999/xlink" x="0px" y="0px"
	 viewBox="-58.493877 4.440001 174.528885 46.395233" enable-background="new -58.493877 4.440001 174.528885 46.395233"
	 xml:space="preserve">
<g>
	<g>
		<g>
			<path fill="#232C3B" d="M27.587,29.787001V28.67c0-1.360001-1.104-2.462999-2.462999-2.462999
				c-1.361,0-2.464001,1.103001-2.464001,2.462999v1.117001C22.66,31.146,23.763,32.25,25.124001,32.25
				C26.483,32.25,27.587,31.146999,27.587,29.787001z"/>
			<path fill="#232C3B" d="M29.275999,31.149c-0.545,1.787001-2.190001,3.1-4.152,3.1c-1.962999,0-3.608-1.312-4.153999-3.1H4.001
				C2.93,31.149,1.918,30.9,1.01,30.468v11.267c0,2.200001,1.8,4,4,4H45.236c2.200001,0,4-1.799999,4-4V30.469
				c-0.908001,0.431999-1.919998,0.681-2.990002,0.681L29.275999,31.149L29.275999,31.149z"/>
			<path fill="#232C3B" d="M46.077999,10.917h-9.602001c-0.578999-3.626-3.722-6.408-7.507999-6.408h-7.694
				c-3.787001,0-6.927,2.782-7.507999,6.408h-9.6c-2.292,0-4.167,1.8-4.167,4v9.233c0,2.208,1.791,4,4,4h16.780001
				c0.056999-1.149,0.551001-2.186001,1.332001-2.933001c0.024-0.021999,0.052-0.041,0.077-0.063
				c0.173-0.159,0.353001-0.309,0.549999-0.438999c0.07-0.047001,0.15-0.079,0.223-0.121
				c0.162001-0.093,0.322001-0.190001,0.497-0.261999c0.136999-0.056999,0.285-0.09,0.429001-0.132999
				c0.124001-0.037001,0.242001-0.086,0.371-0.112C24.538,24.030001,24.827,24,25.122,24c0.296,0,0.584,0.031,0.863001,0.087
				c0.128,0.025999,0.247,0.075001,0.372,0.112c0.143999,0.042999,0.290001,0.076,0.429001,0.134001
				c0.174,0.072001,0.333,0.167999,0.495001,0.261c0.073,0.042999,0.153,0.075001,0.225,0.122
				c0.197001,0.129,0.375999,0.278999,0.549,0.438c0.025,0.023001,0.056,0.041,0.077999,0.065001
				c0.782,0.747999,1.275,1.782,1.332001,2.933001h16.780001c2.209,0,4-1.791,4-4v-9.233
				C50.244999,12.717,48.369999,10.917,46.077999,10.917z M17.618999,10.917c0.51-1.541,1.947001-2.664,3.657-2.664h7.694
				c1.709,0,3.145998,1.123,3.656,2.664H17.618999z"/>
		</g>
	</g>
</g>
<g>
	<path fill="#232C3B" d="M114.279167,40.956776V23.029413L94.017181,15.31727v-3.498192h1.96286v1.59413h6.92984V7.885871h-3.516289
		V6.29313h-5.376411V6.279232c0-0.8742-0.79895-1.580232-1.757378-1.580232c-0.959969,0-1.757385,0.706031-1.757385,1.580232
		v8.871259l-21.499512,7.878924v17.927364h-1.758911v4.778221h20.6745v-11.80518h8.679543v11.80518h19.436974v-4.778221
		C116.035011,40.956779,114.279167,40.956779,114.279167,40.956776z M79.028862,33.928429h4.755348v4.218121h-4.755348V33.928429z
		 M71.484093,33.928429h4.85656v4.218121h-4.85656V33.928429z M91.637207,27.603329
		c-1.883125,0-3.413551-1.384266-3.413551-3.096531c0-1.708096,1.528893-3.092361,3.413551-3.092361
		c1.884651,0,3.416611,1.382875,3.416611,3.092363C95.053818,26.216284,93.526459,27.603329,91.637207,27.603329z
		 M107.352394,33.928429h4.858093v4.218121h-4.858093V33.928429z M99.806099,33.928429h4.859627v4.218121h-4.859627V33.928429z"/>
</g>
<g>
	<g>
		<path fill="#232C3B" d="M-30.099539,24.426245c1.262642-0.263044,2.427277-1.279673,2.617037-3.534332
			c0.156397-1.845369-0.329479-2.795984-1.046818-3.28043c1.991451-7.906548-3.501198-9.454342-3.501198-9.454342
			s-4.104893-6.783279-12.113445-2.023101c-1.018661,0.605306-2.60244,1.765135-3.546036,2.962543
			c-1.514961,1.570138-2.546135,4.122374-2.707745,8.255919c-0.978001,0.363588-1.746429,1.283735-1.555626,3.538397
			c0.200188,2.357237,1.46283,3.360662,2.791157,3.565817c1.79335,4.254404,5.334171,7.7603,9.524559,7.7603
			C-35.437878,32.21701-31.889761,28.694866-30.099539,24.426245z M-39.63765,30.233519
			c-4.845169,0-8.746746-6.408518-8.746746-11.715096c0-0.727179,0.023979-1.401546,0.069859-2.027164
			c7.086853,0.301638,11.278286-2.465908,13.559589-4.866817c2.16349,2.100287,3.287458,4.753069,3.861958,6.722342
			c0,0.056875,0.001041,0.112734,0.001041,0.170624C-30.890907,23.825001-34.791439,30.233519-39.63765,30.233519z"/>
		<path fill="#232C3B" d="M-42.41317,38.256863l0.56094-2.261768c0.064648-0.261013,0.203316-0.484447,0.390995-0.656086
			c-0.057346-0.039608-0.113647-0.081249-0.168911-0.12492l-5.010948-4.041124l-3.049736,0.694679
			c-5.164219,1.183187-8.803047,5.431501-8.803047,10.304407v6.398361c0,1.259361,1.150036,2.263802,2.526329,2.263802h12.908981
			l1.968513-10.930027C-41.97422,39.893017-42.6217,39.09779-42.41317,38.256863z"/>
		<path fill="#232C3B" d="M-29.767981,31.867641l-3.008028-0.694679l-5.005737,4.041122
			c-0.05526,0.043671-0.109478,0.085312-0.166824,0.12492c0.188717,0.171642,0.327389,0.395077,0.393078,0.656086l0.559902,2.261772
			c0.209572,0.839912-0.437912,1.636154-1.323116,1.648342l1.96851,10.930027h12.908983
			c1.376291,0,2.423107-1.003422,2.423107-2.263802v-6.398361C-21.016022,37.299141-24.60376,33.050831-29.767981,31.867641z"/>
	</g>
</g>
</svg>
